# xmcd
#
# Track frame offsets:
#	150
#	11072
#	21101
#	30430
#	43553
#	53809
#	65168
#	75801
#	85296
#	98167
#	110841
#	125193
#	135465
#	145594
#	156922
#	168462
#	180499
#	193223
#	204661
#	214451
#	225730
#	235606
#	246935
#	259703
#	269756
#	281874
#	291807
#	302202
#	316141
#	328464
#	337693
#	348691
#
# Disc length: 4793 seconds
#
# Revision: 0
# Processed by: cddbd v1.5.2PL0 Copyright (c) Steve Scherf et al.
# Submitted via: EasyCDDAExtractor 11.5.3.1
#
DISCID=e612b720
DTITLE=Various Artist - On Bended Knee: The Birth of Swamp Pop
DYEAR=2012
DGENRE=R&B
TTITLE0=Earl King - Those Lonely, Lonely Nights
TTITLE1=Bobby Charles - On Bended Knee
TTITLE2=The Boogie Ramblers and Shelton Dunaway - Cindy Lou
TTITLE3=Roy Perkins - You're on My Mind
TTITLE4=Guitar Gable and the Musical Kings Featuring King Karl - Life Problems
TTITLE5=Bobby Charles - Why Can't You
TTITLE6=Guitar Jr. - Family Rules (Angel Child)
TTITLE7=Joe Hudson and His Rockin' Dukes - Baby Give Me a Chance
TTITLE8=Jimmy Clanton - I Trusted You
TTITLE9=Guitar Gable and King Karl - This Should Go on Forever
TTITLE10=Cookie and the Cupcakes - Mathilda
TTITLE11=Elton Anderson - Shed So Many Tears
TTITLE12=Bobby Page and The Riff-Raffs - Hippy-Ti-Yo
TTITLE13=Jimmy Clanton - Just a Dream
TTITLE14=Guitar Jr. - Broken Hearted Rollin' Tears
TTITLE15=Doug Ardoin and the Boogie Kings - Lost Love
TTITLE16=Warren Storm - Prisoner's Song
TTITLE17=Red Smiley and the Vel-Tones Featuring Clint West - Lover's Blues
TTITLE18=Jivin' Gene and the Jokers - Going Out with the Tide
TTITLE19=Johnnie Allan - Lonely Days, Lonely Nights
TTITLE20=Red Smiley and the Veltones - Jailbird
TTITLE21=Johnnie Allan - My Baby is Gone
TTITLE22=Jimmy Wilson - Please Accept My Love
TTITLE23=Guitar Jr. - The Crawl
TTITLE24=Jimmy Donley - Born to Be a Loser
TTITLE25=King Karl with Guitar Gable's Band - Walking in the Park
TTITLE26=Elton Anderson - Want a Come Back Home
TTITLE27=Steve Rollins and the Continentals - Crying Over You
TTITLE28=Randy and the Rockets Featuring Dennis Norris - Genevieve
TTITLE29=Bobby Charles - Four Winds
TTITLE30=Buck Rogers - Crazy Baby
TTITLE31=Phil Phillips and the Twilights - Sea of Love
EXTD=
EXTT0=
EXTT1=
EXTT2=
EXTT3=
EXTT4=
EXTT5=
EXTT6=
EXTT7=
EXTT8=
EXTT9=
EXTT10=
EXTT11=
EXTT12=
EXTT13=
EXTT14=
EXTT15=
EXTT16=
EXTT17=
EXTT18=
EXTT19=
EXTT20=
EXTT21=
EXTT22=
EXTT23=
EXTT24=
EXTT25=
EXTT26=
EXTT27=
EXTT28=
EXTT29=
EXTT30=
EXTT31=
PLAYORDER=
